<svg width="46" height="48" viewBox="0 0 46 48" fill="none" xmlns="http://www.w3.org/2000/svg">
<path fill-rule="evenodd" clip-rule="evenodd" d="M22.7725 9.48342e-07C21.7757 -2.13772e-05 20.9434 -2.14826e-05 20.2602 0.0463711C19.5489 0.0946837 18.8772 0.19881 18.2258 0.467342C16.7145 1.09047 15.5137 2.28567 14.8877 3.79004C14.5618 4.57322 14.4735 5.3986 14.4398 6.29573C14.4127 7.01691 14.0471 7.61863 13.5074 7.92873C12.9678 8.23883 12.2615 8.25317 11.6205 7.91594C10.8231 7.49642 10.0608 7.15979 9.21641 7.04915C7.59453 6.83661 5.95424 7.2741 4.6564 8.26536C4.0971 8.69253 3.67058 9.21958 3.27295 9.80852C2.89095 10.3743 2.47486 11.0917 1.97641 11.951L1.91977 12.0487C1.4213 12.908 1.00519 13.6254 0.703937 14.2375C0.39035 14.8748 0.145038 15.506 0.0530099 16.2017C-0.160519 17.8161 0.27901 19.4488 1.27486 20.7407C1.79325 21.4129 2.46714 21.9018 3.23073 22.3794C3.84481 22.7634 4.18558 23.3796 4.18554 24C4.18551 24.6202 3.84474 25.2364 3.23073 25.6204C2.46705 26.0979 1.79309 26.5869 1.27466 27.2593C0.278785 28.5511 -0.160721 30.1837 0.0527856 31.7981C0.144814 32.4938 0.390125 33.1251 0.703712 33.7623C1.00496 34.3745 1.42108 35.0918 1.91953 35.9511L1.97618 36.0489C2.47464 36.9082 2.89072 37.6255 3.27272 38.1913C3.67035 38.7802 4.09687 39.3073 4.65617 39.7344C5.95401 40.7257 7.59431 41.1632 9.21618 40.9507C10.0605 40.84 10.8227 40.5035 11.6201 40.084C12.2612 39.7467 12.9677 39.761 13.5073 40.0713C14.047 40.3814 14.4127 40.9831 14.4398 41.7044C14.4735 42.6015 14.5618 43.4268 14.8877 44.21C15.5137 45.7143 16.7145 46.9096 18.2258 47.5327C18.8772 47.8013 19.5489 47.9054 20.2602 47.9536C20.9434 48 21.7757 48 22.7725 48H22.8858C23.8828 48 24.7149 48 25.3983 47.9536C26.1096 47.9054 26.7813 47.8013 27.4327 47.5327C28.944 46.9096 30.1449 45.7143 30.7709 44.21C31.0968 43.4268 31.1849 42.6015 31.2186 41.7042C31.2457 40.9831 31.6113 40.3814 32.151 40.0711C32.6906 39.761 33.3972 39.7467 34.0382 40.0838C34.8356 40.5033 35.5977 40.84 36.4422 40.9505C38.0641 41.163 39.7043 40.7257 41.0021 39.7344C41.5615 39.3071 41.9879 38.7802 42.3856 38.1913C42.7675 37.6255 43.1836 36.9082 43.682 36.0489L43.7387 35.9511C44.2371 35.0918 44.6534 34.3743 44.9546 33.7621C45.2682 33.1249 45.5133 32.4938 45.6055 31.7981C45.8191 30.1835 45.3794 28.5509 44.3836 27.2591C43.8652 26.5866 43.1912 26.0979 42.4277 25.6204C41.8136 25.2364 41.4729 24.6202 41.4729 23.9998C41.4729 23.3796 41.8136 22.7636 42.4275 22.3796C43.1914 21.9021 43.8655 21.4134 44.3838 20.7407C45.3797 19.4489 45.8193 17.8162 45.6058 16.2019C45.5136 15.5061 45.2684 14.875 44.9549 14.2377C44.6536 13.6256 44.2376 12.9083 43.7389 12.049L43.6824 11.9513C43.1838 11.0919 42.7678 10.3744 42.3858 9.80868C41.9881 9.21973 41.5617 8.69269 41.0023 8.26549C39.7046 7.27426 38.0643 6.83676 36.4422 7.0493C35.5979 7.15995 34.8358 7.49653 34.0384 7.91603C33.3974 8.2533 32.6908 8.23895 32.1512 7.9288C31.6115 7.61867 31.2457 7.01687 31.2186 6.29562C31.1849 5.39851 31.0968 4.57317 30.7709 3.79004C30.1449 2.28567 28.944 1.09047 27.4327 0.467342C26.7813 0.19881 26.1096 0.0946837 25.3983 0.0463711C24.7149 -2.14826e-05 23.8828 -2.13772e-05 22.8858 9.48342e-07H22.7725ZM19.5133 3.56127C19.6864 3.48991 19.9493 3.42412 20.4892 3.38744C21.0443 3.34975 21.7612 3.34884 22.8293 3.34884C23.8974 3.34884 24.6142 3.34975 25.1691 3.38744C25.7092 3.42412 25.9721 3.48991 26.145 3.56127C26.832 3.84451 27.378 4.38778 27.6624 5.07159C27.7523 5.28728 27.8266 5.62353 27.8566 6.42077C27.923 8.18981 28.8404 9.89312 30.469 10.829C32.0974 11.7649 34.0382 11.704 35.6105 10.8768C36.319 10.504 36.649 10.4 36.8814 10.3695C37.6186 10.2729 38.3642 10.4718 38.9541 10.9223C39.1028 11.0358 39.2914 11.2295 39.5933 11.6766C39.9037 12.1363 40.2628 12.7537 40.7969 13.6744C41.3309 14.5952 41.6887 15.2135 41.9334 15.7108C42.1714 16.1946 42.2456 16.4541 42.27 16.639C42.3672 17.3728 42.1673 18.1149 41.7147 18.7021C41.5718 18.8873 41.3166 19.1196 40.6376 19.544C39.1319 20.486 38.1087 22.1282 38.1085 23.9998C38.1085 25.8716 39.1317 27.5141 40.6376 28.456C41.3163 28.8804 41.5716 29.1126 41.7145 29.2979C42.1671 29.885 42.3669 30.6271 42.2698 31.361C42.2454 31.5458 42.1711 31.8053 41.9331 32.289C41.6884 32.7862 41.3307 33.4047 40.7966 34.3254C40.2626 35.2461 39.9035 35.8636 39.5931 36.3233C39.2912 36.7702 39.1025 36.964 38.9538 37.0774C38.3639 37.5282 37.6184 37.7269 36.8811 37.6304C36.6488 37.5999 36.3188 37.4958 35.6103 37.1232C34.038 36.2958 32.0971 36.2351 30.4685 37.171C28.8404 38.1069 27.923 39.8101 27.8566 41.5792C27.8266 42.3764 27.7523 42.7126 27.6624 42.9285C27.378 43.6121 26.832 44.1555 26.145 44.4389C25.9721 44.5101 25.7092 44.5759 25.1691 44.6125C24.6142 44.6503 23.8974 44.6512 22.8293 44.6512C21.7612 44.6512 21.0443 44.6503 20.4892 44.6125C19.9493 44.5759 19.6864 44.5101 19.5133 44.4389C18.8265 44.1555 18.2806 43.6121 17.996 42.9285C17.9063 42.7126 17.8319 42.3764 17.8019 41.5792C17.7354 39.8103 16.8181 38.1069 15.1895 37.171C13.561 36.2351 11.6204 36.296 10.048 37.1232C9.33937 37.496 9.00961 37.6001 8.77706 37.6304C8.03982 37.7271 7.29424 37.5282 6.70433 37.0777C6.55571 36.9643 6.36701 36.7705 6.06513 36.3233C5.75482 35.8638 5.39561 35.2463 4.86156 34.3256C4.32749 33.4049 3.96988 32.7865 3.72515 32.2893C3.48708 31.8055 3.41288 31.5458 3.38844 31.361C3.29138 30.6271 3.49116 29.885 3.94384 29.2979C4.08662 29.1128 4.34198 28.8804 5.02068 28.456C6.52655 27.5143 7.54987 25.8718 7.54996 24.0002C7.55007 22.1282 6.52671 20.4857 5.0207 19.5438C4.34216 19.1194 4.08682 18.8872 3.94404 18.7019C3.49139 18.1148 3.29161 17.3726 3.38866 16.6388C3.41311 16.454 3.4873 16.1944 3.72537 15.7107C3.9701 15.2133 4.32772 14.595 4.86176 13.6743C5.39583 12.7536 5.75502 12.1361 6.06535 11.6765C6.36723 11.2294 6.55593 11.0357 6.70453 10.9222C7.29447 10.4716 8.04005 10.2727 8.77726 10.3693C9.00983 10.3998 9.33961 10.5038 10.0483 10.8767C11.6206 11.7039 13.5612 11.7647 15.1896 10.8289C16.8181 9.89309 17.7354 8.18985 17.8019 6.42088C17.8319 5.62357 17.9063 5.2873 17.996 5.07159C18.2806 4.38778 18.8265 3.84451 19.5133 3.56127Z" fill="white"/>
</svg>
