<svg width="34" height="27" viewBox="0 0 34 27" fill="none" xmlns="http://www.w3.org/2000/svg">
<path d="M24.5 25H26C26.7881 25 27.5682 24.8415 28.2961 24.5333C29.024 24.2251 29.6855 23.7731 30.2426 23.2035C30.7998 22.6341 31.2419 21.9581 31.5434 21.214C31.8449 20.4698 32 19.6722 32 18.8667V8.13347C32 7.32803 31.8449 6.53044 31.5434 5.7863C31.2419 5.04217 30.7998 4.36593 30.2426 3.79641C29.6855 3.22688 29.024 2.77523 28.2961 2.467C27.5682 2.15878 26.7881 2 26 2H8.00002C7.21209 2 6.43196 2.15878 5.70399 2.467C4.97604 2.77523 4.31461 3.22688 3.75748 3.79641C3.20032 4.36593 2.75827 5.04217 2.45673 5.7863C2.15521 6.53044 2 7.32803 2 8.13347V12.7335" stroke="white" stroke-width="4" stroke-linecap="round" stroke-linejoin="round"/>
</svg>
