<svg width="35" height="36" viewBox="0 0 35 36" fill="none" xmlns="http://www.w3.org/2000/svg">
<path d="M3.92714 2.02796C2.92931 1.62259 2.43038 1.41992 2.1125 1.52895C1.83646 1.62366 1.61986 1.84701 1.52805 2.13167C1.4223 2.45951 1.61883 2.97401 2.01192 4.00304L11.7964 29.6168C12.113 30.4455 12.2713 30.8599 12.5293 31.0263C12.7542 31.1713 13.0287 31.2094 13.2828 31.1312C13.5743 31.0413 13.8335 30.6849 14.3517 29.9722L18.3032 24.5392L24.6703 33.5676C25.0203 34.0638 25.1955 34.3121 25.4185 34.4158C25.6141 34.5068 25.8345 34.5247 26.0416 34.4663C26.2775 34.3996 26.488 34.1826 26.9089 33.7486L32.7715 27.703C33.1921 27.2689 33.4026 27.0519 33.4672 26.8087C33.5239 26.5951 33.5067 26.3678 33.4183 26.166C33.3177 25.9359 33.0771 25.7554 32.5957 25.3945L23.841 18.8284L29.1095 14.7534C29.8005 14.219 30.146 13.9517 30.2331 13.6511C30.309 13.389 30.2721 13.106 30.1314 12.874C29.9701 12.608 29.5684 12.4447 28.7647 12.1182L3.92714 2.02796Z" stroke="white" stroke-width="3" stroke-linecap="round" stroke-linejoin="round"/>
</svg>
