<svg width="44" height="44" viewBox="0 0 44 44" fill="none" xmlns="http://www.w3.org/2000/svg">
<path d="M0.448992 41.3803C-0.150093 41.9802 -0.149602 42.952 0.450097 43.551C1.0498 44.15 2.02163 44.1496 2.62071 43.55L0.448992 41.3803ZM12.1434 34.0175C12.7425 33.4179 12.742 32.446 12.1423 31.8468C11.5426 31.2478 10.5708 31.2482 9.97171 31.8481L12.1434 34.0175ZM29.078 8.65795L35.3856 14.9722L37.5573 12.8027L31.2497 6.48845L29.078 8.65795ZM16.4106 36.1189L7.98594 27.6857L5.81422 29.8552L14.2389 38.2885L16.4106 36.1189ZM32.8525 26.6914L28.929 28.1654L30.0087 31.0391L33.932 29.565L32.8525 26.6914ZM15.9347 15.1238L17.3559 11.2449L14.4735 10.1889L13.0524 14.0678L15.9347 15.1238ZM9.81158 20.7654C11.2675 20.3639 12.3754 20.0819 13.2814 19.4297L11.4878 16.9384C11.1339 17.1932 10.6744 17.3432 8.99569 17.8061L9.81158 20.7654ZM13.0524 14.0678C12.4528 15.7041 12.2653 16.1506 11.9821 16.483L14.3185 18.4739C15.0424 17.6246 15.4147 16.5432 15.9347 15.1238L13.0524 14.0678ZM13.2814 19.4297C13.6642 19.154 14.0125 18.8331 14.3185 18.4739L11.9821 16.483C11.8362 16.6542 11.6702 16.8071 11.4878 16.9384L13.2814 19.4297ZM28.929 28.1654C27.5189 28.6953 26.4437 29.0753 25.6014 29.8047L27.611 32.1254C27.9401 31.8403 28.383 31.65 30.0087 31.0391L28.929 28.1654ZM26.3048 35.0981C26.7658 33.4224 26.9154 32.9632 27.1696 32.6089L24.6754 30.8195C24.026 31.7247 23.745 32.8302 23.345 34.2838L26.3048 35.0981ZM25.6014 29.8047C25.2541 30.1055 24.9433 30.446 24.6754 30.8195L27.1696 32.6089C27.2973 32.4309 27.4455 32.2686 27.611 32.1254L25.6014 29.8047ZM7.98594 27.6857C6.66363 26.3621 5.76694 25.461 5.18507 24.73C4.60119 23.9964 4.5409 23.6787 4.54 23.5363L1.47035 23.5558C1.47786 24.7472 2.06953 25.7449 2.78324 26.6416C3.49898 27.5409 4.54552 28.5852 5.81422 29.8552L7.98594 27.6857ZM8.99569 17.8061C7.26596 18.283 5.84055 18.6735 4.77434 19.1016C3.71109 19.5283 2.70372 20.1038 2.10895 21.1364L4.76906 22.6684C4.83991 22.5454 5.04851 22.2992 5.91799 21.9503C6.78453 21.6024 8.00861 21.2625 9.81158 20.7654L8.99569 17.8061ZM4.54 23.5363C4.53807 23.2316 4.61717 22.9322 4.76906 22.6684L2.10895 21.1364C1.68535 21.8719 1.46499 22.7069 1.47035 23.5558L4.54 23.5363ZM14.2389 38.2885C15.5156 39.5666 16.5655 40.6207 17.4697 41.3408C18.3712 42.0589 19.3758 42.6539 20.5755 42.6557L20.5802 39.586C20.4379 39.5858 20.1197 39.5273 19.3822 38.9397C18.6471 38.3542 17.7414 37.4511 16.4106 36.1189L14.2389 38.2885ZM23.345 34.2838C22.8454 36.1 22.5034 37.3334 22.1533 38.2061C21.8017 39.0817 21.5537 39.2905 21.4297 39.3613L22.9512 42.0274C23.9929 41.4329 24.5726 40.4195 25.002 39.3494C25.4328 38.2765 25.8253 36.8406 26.3048 35.0981L23.345 34.2838ZM20.5755 42.6557C21.4086 42.6569 22.2276 42.4404 22.9512 42.0274L21.4297 39.3613C21.1708 39.509 20.8779 39.5864 20.5802 39.586L20.5755 42.6557ZM35.3856 14.9722C37.562 17.1507 39.0678 18.6637 39.9916 19.9106C40.8994 21.1356 41.0038 21.7874 40.8929 22.3L43.8932 22.9488C44.2818 21.152 43.5658 19.5778 42.458 18.0829C41.3664 16.6099 39.6617 14.9091 37.5573 12.8027L35.3856 14.9722ZM33.932 29.565C36.7181 28.5182 38.9731 27.6753 40.5757 26.7859C42.202 25.8832 43.5046 24.746 43.8932 22.9488L40.8929 22.3C40.7822 22.8125 40.4181 23.3624 39.0858 24.1018C37.7298 24.8544 35.7339 25.6088 32.8525 26.6914L33.932 29.565ZM31.2497 6.48845C29.1297 4.36637 27.4189 2.64801 25.9383 1.54875C24.4365 0.433974 22.854 -0.28747 21.0494 0.110672L21.7106 3.10831C22.2219 2.99555 22.8749 3.09777 24.1083 4.01346C25.3626 4.94469 26.8858 6.46362 29.078 8.65795L31.2497 6.48845ZM17.3559 11.2449C18.4234 8.33152 19.1675 6.31222 19.9147 4.93929C20.6493 3.58908 21.1994 3.22111 21.7106 3.10831L21.0494 0.110672C19.245 0.508752 18.1123 1.82899 17.2183 3.47203C16.3366 5.09232 15.5059 7.3713 14.4735 10.1889L17.3559 11.2449ZM2.62071 43.55L12.1434 34.0175L9.97171 31.8481L0.448992 41.3803L2.62071 43.55Z" fill="white"/>
</svg>
