<svg width="35" height="32" viewBox="0 0 35 32" fill="none" xmlns="http://www.w3.org/2000/svg">
<path d="M11.3001 25.3612L14.8456 28.9433C15.5643 29.6221 16.5136 30 17.5 30C18.4864 30 19.4358 29.6221 20.1546 28.9433L23.7 25.3612H26.8C28.4444 25.3612 30.0213 24.705 31.184 23.5365C32.3469 22.3683 33 20.7836 33 19.1314V8.22947C33 6.57736 32.3469 4.9929 31.184 3.82461C30.0213 2.65633 28.4444 2 26.8 2H8.20002C6.55568 2 4.97877 2.65633 3.81606 3.82461C2.65332 4.9929 2 6.57736 2 8.22947V19.1314C2 20.7836 2.65332 22.3683 3.81606 23.5365C4.97877 24.705 6.55568 25.3612 8.20002 25.3612H11.3001Z" stroke="white" stroke-width="4" stroke-linecap="round" stroke-linejoin="round"/>
</svg>
