<svg width="46" height="46" viewBox="0 0 46 46" fill="none" xmlns="http://www.w3.org/2000/svg">
<path d="M16.0043 18.3362C16.0043 16.9526 16.4146 15.6001 17.1833 14.4496C17.952 13.2992 19.0447 12.4026 20.323 11.8731C21.6011 11.3436 23.0077 11.2051 24.3649 11.475C25.7218 11.7449 26.9684 12.4112 27.9466 13.3895C28.9251 14.3679 29.5913 15.6144 29.8613 16.9714C30.1311 18.3285 29.9926 19.7351 29.4631 21.0135C28.9337 22.2916 28.0371 23.3843 26.8866 24.1529C25.7362 24.9217 24.3835 25.3319 23 25.3319V27.6638M43.987 23C43.987 34.5909 34.5909 43.987 23 43.987C11.4092 43.987 2.01301 34.5909 2.01301 23C2.01301 11.4092 11.4092 2.01301 23 2.01301C34.5909 2.01301 43.987 11.4092 43.987 23Z" stroke="white" stroke-width="4" stroke-linecap="round" stroke-linejoin="round"/>
</svg>
