<svg width="43" height="38" viewBox="0 0 43 38" fill="none" xmlns="http://www.w3.org/2000/svg">
<path d="M14.6544 29.2308H5.73333C5.35319 29.2308 4.98862 29.0768 4.71981 28.8027C4.45101 28.5286 4.3 28.1569 4.3 27.7692V2.92308H1.43333C1.05319 2.92308 0.688616 2.76909 0.419814 2.495C0.151011 2.22091 0 1.84916 0 1.46154C0 1.07391 0.151011 0.702167 0.419814 0.428075C0.688616 0.153983 1.05319 0 1.43333 0H41.5667C41.9468 0 42.3114 0.153983 42.5802 0.428075C42.849 0.702167 43 1.07391 43 1.46154C43 1.84916 42.849 2.22091 42.5802 2.495C42.3114 2.76909 41.9468 2.92308 41.5667 2.92308H38.7V27.7692C38.7 28.1569 38.549 28.5286 38.2802 28.8027C38.0114 29.0768 37.6468 29.2308 37.2667 29.2308H28.3628L33.3279 38H30.0197L25.0547 29.2308H17.9625L12.9975 38H9.68933L14.6544 29.2308ZM35.8333 2.92308H7.16667V26.3077H35.8333V2.92308ZM13.9148 18.5732C13.7815 18.7091 13.6233 18.8169 13.4492 18.8905C13.2751 18.964 13.0885 19.0018 12.9 19.0018C12.7115 19.0018 12.5249 18.964 12.3508 18.8905C12.1767 18.8169 12.0185 18.7091 11.8852 18.5732C11.7519 18.4373 11.6462 18.276 11.5741 18.0985C11.502 17.9209 11.4649 17.7306 11.4649 17.5385C11.4649 17.3463 11.502 17.156 11.5741 16.9784C11.6462 16.8009 11.7519 16.6396 11.8852 16.5037L18.4986 9.76308L24.1173 14.06L28.982 7.85723C29.0959 7.69717 29.2404 7.56234 29.4068 7.46089C29.5733 7.35944 29.7582 7.29349 29.9504 7.26702C30.1426 7.24055 30.338 7.25413 30.5249 7.30692C30.7118 7.35971 30.8862 7.45062 31.0376 7.57414C31.189 7.69766 31.3143 7.85123 31.4058 8.02556C31.4974 8.19988 31.5533 8.39133 31.5701 8.58832C31.587 8.7853 31.5645 8.98373 31.504 9.17159C31.4434 9.35944 31.3461 9.53282 31.218 9.68123L24.6189 18.0968L18.7681 13.6215L13.9148 18.5703V18.5732Z" fill="white"/>
</svg>
